<svg width="333" height="333" viewBox="0 0 333 333" fill="none" xmlns="http://www.w3.org/2000/svg">
<path fill-rule="evenodd" clip-rule="evenodd" d="M166.343 0C74.508 0 0 74.508 0 166.343C0 258.179 74.508 332.687 166.343 332.687C257.999 332.687 332.687 258.179 332.687 166.343C332.687 74.508 257.999 0 166.343 0ZM276.213 76.6704C296.694 101.613 308.027 132.81 308.331 165.082C303.646 164.181 256.737 154.616 209.468 160.577C208.373 158.22 207.472 155.697 206.391 153.175C203.451 146.235 200.326 139.376 197.02 132.603C249.335 111.311 273.15 80.6488 276.213 76.6704V76.6704ZM166.343 24.5495C202.426 24.5495 235.445 38.0649 260.521 60.2579C257.999 63.862 236.526 92.5562 186.013 111.492C162.725 68.7414 136.942 33.7261 132.964 28.32C143.905 25.765 155.108 24.495 166.343 24.5356V24.5495ZM105.905 37.8847C109.69 42.9443 134.946 78.1259 158.581 119.975C92.1819 137.663 33.5459 137.303 27.2387 137.303C36.4431 93.277 66.2185 56.6538 105.905 37.8847ZM24.1752 166.524V162.199C30.3161 162.379 99.2238 163.28 170.142 141.988C174.286 149.931 178.071 158.04 181.675 166.163C179.873 166.704 177.89 167.244 176.088 167.785C102.842 191.42 63.862 256.002 60.6183 261.422C37.1557 235.383 24.1725 201.574 24.1752 166.524V166.524ZM166.343 308.511C133.504 308.511 103.202 297.325 79.2072 278.57C81.73 273.33 110.591 217.757 190.699 189.798C191.059 189.618 191.253 189.618 191.6 189.437C211.63 241.212 219.74 284.697 221.916 297.145C204.769 304.547 186.013 308.511 166.343 308.511ZM245.551 284.156C244.109 275.492 236.526 234.004 217.938 182.936C262.504 175.908 301.47 187.455 306.349 189.077C300.208 228.583 277.475 262.684 245.551 284.156Z" fill="#2E2E2E"/>
</svg>
