<svg width="334" height="333" viewBox="0 0 334 333" fill="none" xmlns="http://www.w3.org/2000/svg">
<path fill-rule="evenodd" clip-rule="evenodd" d="M167.149 0C75.3134 0 0.80542 74.508 0.80542 166.343C0.80542 258.179 75.3134 332.687 167.149 332.687C258.804 332.687 333.492 258.179 333.492 166.343C333.492 74.508 258.804 0 167.149 0ZM277.019 76.6704C297.499 101.613 308.832 132.81 309.137 165.082C304.451 164.181 257.543 154.616 210.273 160.577C209.178 158.22 208.277 155.697 207.196 153.175C204.256 146.235 201.131 139.376 197.825 132.603C250.14 111.311 273.955 80.6488 277.019 76.6704V76.6704ZM167.149 24.5495C203.231 24.5495 236.251 38.0649 261.327 60.2579C258.804 63.862 237.332 92.5562 186.819 111.492C163.531 68.7414 137.748 33.7261 133.769 28.32C144.711 25.765 155.913 24.495 167.149 24.5356V24.5495ZM106.711 37.8847C110.495 42.9443 135.751 78.1259 159.386 119.975C92.9874 137.663 34.3513 137.303 28.0441 137.303C37.2485 93.277 67.0239 56.6538 106.711 37.8847ZM24.9807 166.524V162.199C31.1215 162.379 100.029 163.28 170.947 141.988C175.092 149.931 178.876 158.04 182.48 166.163C180.678 166.704 178.696 167.244 176.894 167.785C103.647 191.42 64.6674 256.002 61.4237 261.422C37.9611 235.383 24.9779 201.574 24.9807 166.524V166.524ZM167.149 308.511C134.31 308.511 104.008 297.325 80.0126 278.57C82.5355 273.33 111.396 217.757 191.504 189.798C191.865 189.618 192.059 189.618 192.405 189.437C212.436 241.212 220.545 284.697 222.721 297.145C205.574 304.547 186.819 308.511 167.149 308.511ZM246.356 284.156C244.914 275.492 237.332 234.004 218.743 182.936C263.309 175.908 302.275 187.455 307.154 189.077C301.014 228.583 278.28 262.684 246.356 284.156Z" fill="#EDEDED"/>
</svg>
