<svg width="348" height="338" viewBox="0 0 348 338" fill="none" xmlns="http://www.w3.org/2000/svg">
<path fill-rule="evenodd" clip-rule="evenodd" d="M174.167 0C78.4328 0 0.892578 77.5403 0.892578 173.274C0.892578 249.948 50.4924 314.709 119.369 337.668C128.033 339.184 131.281 333.986 131.281 329.438C131.281 325.323 131.065 311.677 131.065 297.165C87.5297 305.179 76.2669 286.552 72.8014 276.806C70.8521 271.824 62.405 256.446 55.0408 252.331C48.9762 249.082 40.3125 241.068 54.8242 240.851C68.4696 240.635 78.2162 253.414 81.4651 258.612C97.0598 284.82 121.968 277.455 131.931 272.907C133.447 261.644 137.996 254.063 142.978 249.732C104.424 245.4 64.1377 230.455 64.1377 164.177C64.1377 145.334 70.8521 129.739 81.8983 117.61C80.1656 113.278 74.101 95.5175 83.6311 71.6923C83.6311 71.6923 98.1428 67.1438 131.281 89.4529C145.143 85.5542 159.872 83.6049 174.6 83.6049C189.328 83.6049 204.057 85.5542 217.919 89.4529C251.057 66.9272 265.569 71.6923 265.569 71.6923C275.099 95.5175 269.035 113.278 267.302 117.61C278.348 129.739 285.062 145.117 285.062 164.177C285.062 230.671 244.56 245.4 206.006 249.732C212.287 255.146 217.702 265.543 217.702 281.787C217.702 304.963 217.485 323.59 217.485 329.438C217.485 333.986 220.734 339.401 229.398 337.668C263.796 326.055 293.685 303.947 314.861 274.457C336.036 244.967 347.431 209.579 347.441 173.274C347.441 77.5403 269.901 0 174.167 0Z" fill="#2E2E2E"/>
</svg>
