<svg width="348" height="338" viewBox="0 0 348 338" fill="none" xmlns="http://www.w3.org/2000/svg">
<path fill-rule="evenodd" clip-rule="evenodd" d="M173.972 0C78.2378 0 0.69751 77.5403 0.69751 173.274C0.69751 249.948 50.2973 314.709 119.174 337.668C127.838 339.184 131.086 333.986 131.086 329.438C131.086 325.323 130.87 311.677 130.87 297.165C87.3347 305.179 76.0718 286.552 72.6064 276.806C70.657 271.824 62.2099 256.446 54.8457 252.331C48.7811 249.082 40.1174 241.068 54.6291 240.851C68.2745 240.635 78.0212 253.414 81.2701 258.612C96.8648 284.82 121.773 277.455 131.736 272.907C133.252 261.644 137.801 254.063 142.782 249.732C104.229 245.4 63.9426 230.455 63.9426 164.177C63.9426 145.334 70.657 129.739 81.7033 117.61C79.9705 113.278 73.9059 95.5175 83.436 71.6923C83.436 71.6923 97.9477 67.1438 131.086 89.4529C144.948 85.5542 159.677 83.6049 174.405 83.6049C189.133 83.6049 203.862 85.5542 217.724 89.4529C250.862 66.9272 265.374 71.6923 265.374 71.6923C274.904 95.5175 268.84 113.278 267.107 117.61C278.153 129.739 284.867 145.117 284.867 164.177C284.867 230.671 244.365 245.4 205.811 249.732C212.092 255.146 217.507 265.543 217.507 281.787C217.507 304.963 217.29 323.59 217.29 329.438C217.29 333.986 220.539 339.401 229.203 337.668C263.601 326.055 293.49 303.947 314.666 274.457C335.841 244.967 347.236 209.579 347.246 173.274C347.246 77.5403 269.706 0 173.972 0Z" fill="#EDEDED"/>
</svg>
