<svg width="348" height="333" viewBox="0 0 348 333" fill="none" xmlns="http://www.w3.org/2000/svg">
<path d="M78.967 333V108.325H4.58388V333H78.967ZM41.7851 77.6316C67.7238 77.6316 83.8694 60.3792 83.8694 38.8194C83.3861 16.7735 67.7248 0 42.2773 0C16.8338 0 0.195312 16.7739 0.195312 38.8194C0.195312 60.3802 16.3369 77.6316 41.2995 77.6316H41.7828H41.7851ZM120.138 333H194.521V207.531C194.521 200.816 195.004 194.108 196.969 189.308C202.346 175.891 214.585 161.996 235.133 161.996C262.049 161.996 272.817 182.599 272.817 212.802V332.998H347.195V204.172C347.195 135.161 310.499 103.051 261.559 103.051C221.432 103.051 203.814 125.569 194.026 140.906H194.523V108.321H120.14C121.116 129.403 120.14 332.995 120.14 332.995L120.138 333Z" fill="#2E2E2E"/>
</svg>
