<svg width="347" height="333" viewBox="0 0 347 333" fill="none" xmlns="http://www.w3.org/2000/svg">
<path d="M78.7717 333V108.325H4.38857V333H78.7717ZM41.5898 77.6316C67.5285 77.6316 83.6741 60.3792 83.6741 38.8194C83.1908 16.7735 67.5295 0 42.082 0C16.6385 0 0 16.7739 0 38.8194C0 60.3802 16.1416 77.6316 41.1042 77.6316H41.5874H41.5898ZM119.943 333H194.326V207.531C194.326 200.816 194.809 194.108 196.773 189.308C202.151 175.891 214.39 161.996 234.937 161.996C261.854 161.996 272.621 182.599 272.621 212.802V332.998H347V204.172C347 135.161 310.303 103.051 261.364 103.051C221.237 103.051 203.619 125.569 193.831 140.906H194.327V108.321H119.944C120.92 129.403 119.944 332.995 119.944 332.995L119.943 333Z" fill="#EDEDED"/>
</svg>
