<svg width="128" height="28" viewBox="0 0 128 28" fill="none" xmlns="http://www.w3.org/2000/svg">
<path d="M6.35951 0.372447L12.9041 21.0698H13.1553L19.7132 0.372447H26.0594L16.7251 27.6143H9.34755L0 0.372447H6.35951Z" fill="#EEF3F5"/>
<path d="M46.0436 0.372447H51.7685V18.0637C51.7685 20.05 51.297 21.7881 50.3538 23.2779C49.4195 24.7677 48.1106 25.9294 46.4271 26.7629C44.7435 27.5876 42.7824 28 40.5435 28C38.2959 28 36.3303 27.5876 34.6468 26.7629C32.9632 25.9294 31.6543 24.7677 30.72 23.2779C29.7857 21.7881 29.3185 20.05 29.3185 18.0637V0.372447H35.0434V17.5715C35.0434 18.609 35.2682 19.5313 35.7177 20.3382C36.176 21.1452 36.8195 21.7793 37.648 22.2404C38.4766 22.7015 39.4417 22.9321 40.5435 22.9321C41.6541 22.9321 42.6193 22.7015 43.439 22.2404C44.2676 21.7793 44.9066 21.1452 45.3561 20.3382C45.8145 19.5313 46.0436 18.609 46.0436 17.5715V0.372447Z" fill="#EEF3F5"/>
<path d="M56.1878 27.6143V24.1957L69.7001 5.12114H56.1613V0.372447H76.8925V3.79097L63.367 22.8656H76.919V27.6143H56.1878Z" fill="#EEF3F5"/>
<path d="M81.3118 27.6143V0.372447H99.5574V5.12114H87.0367V11.6124H98.6187V16.361H87.0367V22.8656H99.6103V27.6143H81.3118Z" fill="#EEF3F5"/>
<path d="M128 9.90974H122.209C122.103 9.15598 121.887 8.48646 121.561 7.90119C121.235 7.30705 120.816 6.80158 120.305 6.3848C119.794 5.96801 119.203 5.64877 118.533 5.42708C117.872 5.20538 117.154 5.09454 116.378 5.09454C114.977 5.09454 113.756 5.44481 112.716 6.14537C111.676 6.83705 110.869 7.84798 110.296 9.17815C109.724 10.4994 109.437 12.1045 109.437 13.9933C109.437 15.9354 109.724 17.5671 110.296 18.8884C110.878 20.2097 111.689 21.2073 112.729 21.8812C113.769 22.5552 114.972 22.8922 116.339 22.8922C117.106 22.8922 117.815 22.7902 118.467 22.5862C119.128 22.3823 119.715 22.0852 120.226 21.695C120.737 21.296 121.16 20.8127 121.495 20.2451C121.839 19.6776 122.077 19.0302 122.209 18.3031L128 18.3297C127.85 19.58 127.476 20.7861 126.876 21.9477C126.286 23.1006 125.488 24.1337 124.483 25.047C123.487 25.9515 122.297 26.6698 120.913 27.2019C119.538 27.7251 117.983 27.9867 116.246 27.9867C113.831 27.9867 111.672 27.4369 109.768 26.3373C107.873 25.2377 106.374 23.6459 105.272 21.562C104.179 19.4781 103.633 16.9552 103.633 13.9933C103.633 11.0226 104.188 8.49533 105.299 6.4114C106.409 4.32747 107.917 2.74014 109.821 1.64941C111.724 0.549802 113.866 0 116.246 0C117.815 0 119.269 0.221694 120.609 0.665083C121.958 1.10847 123.152 1.75582 124.192 2.60713C125.232 3.44956 126.078 4.48266 126.731 5.70641C127.392 6.93017 127.815 8.33127 128 9.90974Z" fill="#EEF3F5"/>
</svg>
