<?xml version="1.0" standalone="no"?>
<!DOCTYPE svg PUBLIC "-//W3C//DTD SVG 20010904//EN"
 "http://www.w3.org/TR/2001/REC-SVG-20010904/DTD/svg10.dtd">
<svg version="1.0" xmlns="http://www.w3.org/2000/svg"
 width="700.000000pt" height="700.000000pt" viewBox="0 0 700.000000 700.000000"
 preserveAspectRatio="xMidYMid meet">
<metadata>
Created by potrace 1.14, written by Peter Selinger 2001-2017
</metadata>
<g transform="translate(0.000000,700.000000) scale(0.100000,-0.100000)"
fill="#000000" stroke="none">
<path d="M253 4338 c0 -351 4 -395 47 -484 28 -58 114 -145 172 -175 99 -51
36 -49 1518 -49 l1385 0 -1 512 c-1 282 -2 516 -3 521 0 4 -703 7 -1560 7
l-1559 0 1 -332z"/>
<path d="M3939 4656 c-142 -40 -255 -149 -296 -286 -14 -46 -17 -111 -18 -397
l-1 -343 1562 0 1561 0 1 520 0 520 -1381 -1 c-1085 -1 -1392 -4 -1428 -13z"/>
<path d="M253 2860 l-1 -520 22 -1 c102 -3 2736 1 2751 4 162 37 276 133 326
277 21 62 22 80 23 410 l1 345 -1561 2 -1561 2 0 -519z"/>
<path d="M3627 3372 c-2 -4 -3 -158 -2 -342 2 -365 7 -405 62 -494 58 -93 178
-174 282 -191 33 -5 2420 -10 2732 -6 l46 1 -1 518 -1 517 -1557 2 c-856 2
-1559 -1 -1561 -5z"/>
</g>
</svg>
