<svg width="24" height="24" viewBox="0 0 24 24" fill="none" xmlns="http://www.w3.org/2000/svg">
<path d="M16.24 11.5101L17.81 9.94011L14.06 6.19011L12.49 7.76011L8.35 3.63011C7.57 2.85011 6.3 2.85011 5.52 3.63011L3.62 5.53011C2.84 6.31011 2.84 7.58011 3.62 8.36011L7.75 12.4901L3 17.2501V21.0001H6.75L11.51 16.2401L15.64 20.3701C16.59 21.3201 17.87 20.9701 18.47 20.3701L20.37 18.4701C21.15 17.6901 21.15 16.4201 20.37 15.6401L16.24 11.5101ZM9.18 11.0701L5.04 6.94011L6.93 5.04011L8.2 6.31011L7.02 7.50011L8.43 8.91011L9.62 7.72011L11.07 9.17011L9.18 11.0701ZM17.06 18.9601L12.93 14.8301L14.83 12.9301L16.28 14.3801L15.09 15.5701L16.5 16.9801L17.69 15.7901L18.96 17.0601L17.06 18.9601ZM20.71 7.04011C20.8027 6.9476 20.8762 6.83771 20.9264 6.71674C20.9766 6.59576 21.0024 6.46608 21.0024 6.33511C21.0024 6.20414 20.9766 6.07446 20.9264 5.95349C20.8762 5.83251 20.8027 5.72263 20.71 5.63011L18.37 3.29011C17.9 2.82011 17.25 3.00011 16.96 3.29011L15.13 5.12011L18.88 8.87011L20.71 7.04011Z" fill="#EEF3F5"/>
</svg>
