<svg width="134" height="28" viewBox="0 0 134 28" fill="none" xmlns="http://www.w3.org/2000/svg">
<path d="M0 28V0H18.5391V4.88086H5.91992V11.5527H17.3086V16.4336H5.91992V28H0Z" fill="#EEF3F5"/>
<path d="M28.4409 0V28H22.521V0H28.4409Z" fill="#EEF3F5"/>
<path d="M38.3701 0L45.1377 21.2734H45.3975L52.1787 0H58.7412L49.0889 28H41.46L31.7939 0H38.3701Z" fill="#EEF3F5"/>
<path d="M62.1113 28V0H80.9785V4.88086H68.0313V11.5527H80.0078V16.4336H68.0313V23.1191H81.0332V28H62.1113Z" fill="#EEF3F5"/>
<path d="M85.6851 28V0H96.7319C98.8465 0 100.651 0.378255 102.146 1.13477C103.65 1.88216 104.794 2.94401 105.578 4.32031C106.371 5.6875 106.767 7.29622 106.767 9.14648C106.767 11.0059 106.366 12.6055 105.564 13.9453C104.762 15.276 103.6 16.2969 102.078 17.0078C100.565 17.7188 98.7326 18.0742 96.5815 18.0742H89.1851V13.3164H95.6245C96.7547 13.3164 97.6935 13.1615 98.4409 12.8516C99.1883 12.5417 99.7443 12.0768 100.109 11.457C100.483 10.8372 100.669 10.0671 100.669 9.14648C100.669 8.2168 100.483 7.43294 100.109 6.79492C99.7443 6.1569 99.1838 5.67383 98.4272 5.3457C97.6799 5.00846 96.7365 4.83984 95.5972 4.83984H91.605V28H85.6851ZM100.806 15.2578L107.765 28H101.23L94.4214 15.2578H100.806Z" fill="#EEF3F5"/>
<path d="M110.951 28V0H121.998C124.112 0 125.917 0.378255 127.412 1.13477C128.916 1.88216 130.059 2.94401 130.843 4.32031C131.636 5.6875 132.033 7.29622 132.033 9.14648C132.033 11.0059 131.632 12.6055 130.83 13.9453C130.028 15.276 128.865 16.2969 127.343 17.0078C125.83 17.7188 123.998 18.0742 121.847 18.0742H114.451V13.3164H120.89C122.02 13.3164 122.959 13.1615 123.707 12.8516C124.454 12.5417 125.01 12.0768 125.375 11.457C125.748 10.8372 125.935 10.0671 125.935 9.14648C125.935 8.2168 125.748 7.43294 125.375 6.79492C125.01 6.1569 124.449 5.67383 123.693 5.3457C122.945 5.00846 122.002 4.83984 120.863 4.83984H116.871V28H110.951ZM126.072 15.2578L133.031 28H126.496L119.687 15.2578H126.072Z" fill="#EEF3F5"/>
</svg>
