<svg width="315" height="48" viewBox="0 0 315 48" fill="none" xmlns="http://www.w3.org/2000/svg">
<path d="M42.1005 16.9962H32.0951C31.9123 15.7034 31.5392 14.5551 30.9757 13.5513C30.4123 12.5323 29.6889 11.6654 28.8056 10.9506C27.9223 10.2357 26.902 9.68821 25.7446 9.30799C24.6024 8.92776 23.3613 8.73764 22.0211 8.73764C19.5997 8.73764 17.4905 9.3384 15.6935 10.5399C13.8964 11.7262 12.503 13.4601 11.5131 15.7414C10.5232 18.0076 10.0283 20.7605 10.0283 24C10.0283 27.3308 10.5232 30.1293 11.5131 32.3954C12.5182 34.6616 13.9193 36.3726 15.7163 37.5285C17.5133 38.6844 19.5921 39.2624 21.9526 39.2624C23.2775 39.2624 24.5034 39.0875 25.6304 38.7376C26.7725 38.3878 27.7853 37.8783 28.6686 37.2091C29.5518 36.5247 30.2828 35.6958 30.8615 34.7224C31.4555 33.7491 31.8666 32.6388 32.0951 31.3916L42.1005 31.4373C41.8416 33.5817 41.1944 35.6502 40.1588 37.6426C39.1385 39.6198 37.7603 41.3916 36.0242 42.9582C34.3033 44.5095 32.2474 45.7414 29.8564 46.654C27.4807 47.5513 24.7928 48 21.7927 48C17.6199 48 13.8888 47.057 10.5994 45.1711C7.32514 43.2852 4.73621 40.5551 2.83259 36.981C0.944197 33.4068 0 29.0798 0 24C0 18.9049 0.959426 14.5703 2.87828 10.9962C4.79713 7.42205 7.40128 4.69962 10.6907 2.8289C13.9802 0.942966 17.6808 0 21.7927 0C24.5034 0 27.0162 0.380228 29.331 1.14068C31.661 1.90114 33.7246 3.01141 35.5216 4.47148C37.3186 5.91635 38.7806 7.68821 39.9075 9.78707C41.0497 11.8859 41.7807 14.289 42.1005 16.9962Z" fill="black"/>
<path d="M92.1848 24C92.1848 29.0951 91.2178 33.4297 89.2837 37.0038C87.3648 40.5779 84.7455 43.308 81.4255 45.1939C78.1209 47.0646 74.405 48 70.2779 48C66.1204 48 62.3893 47.057 59.0846 45.1711C55.7799 43.2852 53.1682 40.5551 51.2493 36.981C49.3305 33.4068 48.371 29.0798 48.371 24C48.371 18.9049 49.3305 14.5703 51.2493 10.9962C53.1682 7.42205 55.7799 4.69962 59.0846 2.8289C62.3893 0.942966 66.1204 0 70.2779 0C74.405 0 78.1209 0.942966 81.4255 2.8289C84.7455 4.69962 87.3648 7.42205 89.2837 10.9962C91.2178 14.5703 92.1848 18.9049 92.1848 24ZM82.1565 24C82.1565 20.6996 81.6616 17.9164 80.6717 15.6502C79.697 13.384 78.3188 11.6654 76.537 10.4943C74.7553 9.3232 72.6689 8.73764 70.2779 8.73764C67.887 8.73764 65.8006 9.3232 64.0188 10.4943C62.237 11.6654 60.8512 13.384 59.8613 15.6502C58.8867 17.9164 58.3993 20.6996 58.3993 24C58.3993 27.3004 58.8867 30.0836 59.8613 32.3498C60.8512 34.616 62.237 36.3346 64.0188 37.5057C65.8006 38.6768 67.887 39.2624 70.2779 39.2624C72.6689 39.2624 74.7553 38.6768 76.537 37.5057C78.3188 36.3346 79.697 34.616 80.6717 32.3498C81.6616 30.0836 82.1565 27.3004 82.1565 24Z" fill="black"/>
<path d="M138.643 0.638784V47.3612H130.099L109.746 17.9544H109.403V47.3612H99.5119V0.638784H108.192L128.386 30.0228H128.797V0.638784H138.643Z" fill="black"/>
<path d="M145.033 8.78327V0.638784H183.456V8.78327H169.133V47.3612H159.356V8.78327H145.033Z" fill="black"/>
<path d="M192.131 47.3612H181.531L197.682 0.638784H210.428L226.556 47.3612H215.956L204.238 11.3156H203.872L192.131 47.3612ZM191.468 28.9962H216.505V36.7072H191.468V28.9962Z" fill="black"/>
<path d="M271.266 16.9962H261.261C261.078 15.7034 260.705 14.5551 260.141 13.5513C259.578 12.5323 258.855 11.6654 257.971 10.9506C257.088 10.2357 256.068 9.68821 254.91 9.30799C253.768 8.92776 252.527 8.73764 251.187 8.73764C248.765 8.73764 246.656 9.3384 244.859 10.5399C243.062 11.7262 241.669 13.4601 240.679 15.7414C239.689 18.0076 239.194 20.7605 239.194 24C239.194 27.3308 239.689 30.1293 240.679 32.3954C241.684 34.6616 243.085 36.3726 244.882 37.5285C246.679 38.6844 248.758 39.2624 251.118 39.2624C252.443 39.2624 253.669 39.0875 254.796 38.7376C255.938 38.3878 256.951 37.8783 257.834 37.2091C258.718 36.5247 259.448 35.6958 260.027 34.7224C260.621 33.7491 261.032 32.6388 261.261 31.3916L271.266 31.4373C271.007 33.5817 270.36 35.6502 269.324 37.6426C268.304 39.6198 266.926 41.3916 265.19 42.9582C263.469 44.5095 261.413 45.7414 259.022 46.654C256.646 47.5513 253.958 48 250.958 48C246.786 48 243.055 47.057 239.765 45.1711C236.491 43.2852 233.902 40.5551 231.998 36.981C230.11 33.4068 229.166 29.0798 229.166 24C229.166 18.9049 230.125 14.5703 232.044 10.9962C233.963 7.42205 236.567 4.69962 239.856 2.8289C243.146 0.942966 246.847 0 250.958 0C253.669 0 256.182 0.380228 258.497 1.14068C260.827 1.90114 262.89 3.01141 264.687 4.47148C266.484 5.91635 267.946 7.68821 269.073 9.78707C270.215 11.8859 270.946 14.289 271.266 16.9962Z" fill="black"/>
<path d="M276.577 8.78327V0.638784H315V8.78327H300.677V47.3612H290.9V8.78327H276.577Z" fill="black"/>
</svg>
