<svg width="1264" height="175" viewBox="0 0 1264 175" fill="none" xmlns="http://www.w3.org/2000/svg">
<path d="M153.242 61.8711H117.001C116.339 57.1824 114.988 53.0177 112.947 49.3771C110.906 45.6813 108.286 42.5372 105.086 39.9446C101.887 37.352 98.1912 35.3662 93.9989 33.9872C89.8619 32.6082 85.3662 31.9187 80.5121 31.9187C71.7415 31.9187 64.1017 34.0975 57.5927 38.4552C51.0837 42.7578 46.0365 49.0462 42.451 57.3203C38.8655 65.5393 37.0728 75.5234 37.0728 87.2727C37.0728 99.353 38.8655 109.503 42.451 117.722C46.0916 125.941 51.1664 132.146 57.6754 136.338C64.1844 140.531 71.7139 142.627 80.2639 142.627C85.0629 142.627 89.5033 141.992 93.5852 140.724C97.7223 139.455 101.391 137.607 104.59 135.18C107.789 132.698 110.437 129.692 112.533 126.161C114.684 122.631 116.174 118.604 117.001 114.081L153.242 114.246C152.304 122.024 149.96 129.526 146.209 136.752C142.513 143.923 137.521 150.349 131.233 156.031C124.999 161.657 117.553 166.125 108.892 169.435C100.287 172.69 90.5514 174.317 79.6847 174.317C64.5706 174.317 51.0561 170.897 39.1413 164.057C27.2817 157.217 17.9044 147.315 11.0092 134.353C4.16927 121.39 0.74929 105.696 0.74929 87.2727C0.74929 68.7938 4.22443 53.0729 11.1747 40.1101C18.125 27.1472 27.5575 17.2734 39.4723 10.4886C51.3871 3.64867 64.7912 0.228687 79.6847 0.228687C89.5033 0.228687 98.6049 1.60771 106.989 4.36576C115.429 7.12381 122.903 11.1506 129.412 16.446C135.921 21.6863 141.217 28.1126 145.299 35.7248C149.436 43.337 152.083 52.0524 153.242 61.8711ZM204.955 172H166.563L225.061 2.54545H271.231L329.647 172H291.255L248.808 41.2685H247.484L204.955 172ZM202.556 105.393H293.24V133.36H202.556V105.393ZM438.1 51.2802C437.438 44.6057 434.597 39.4206 429.578 35.7248C424.558 32.029 417.746 30.1811 409.141 30.1811C403.293 30.1811 398.357 31.0085 394.33 32.6633C390.303 34.263 387.214 36.497 385.063 39.3654C382.967 42.2338 381.919 45.4883 381.919 49.1289C381.808 52.1628 382.443 54.8105 383.822 57.0721C385.256 59.3337 387.214 61.2919 389.696 62.9467C392.179 64.5464 395.047 65.953 398.301 67.1665C401.556 68.3249 405.031 69.3178 408.727 70.1452L423.951 73.7859C431.343 75.4407 438.128 77.6471 444.306 80.4052C450.484 83.1632 455.834 86.5556 460.358 90.5824C464.881 94.6091 468.383 99.353 470.866 104.814C473.403 110.275 474.699 116.536 474.755 123.596C474.699 133.966 472.052 142.958 466.811 150.57C461.626 158.127 454.124 164.002 444.306 168.194C434.542 172.331 422.765 174.4 408.975 174.4C395.295 174.4 383.38 172.303 373.231 168.111C363.136 163.919 355.248 157.713 349.567 149.494C343.94 141.22 340.989 130.988 340.713 118.797H375.382C375.768 124.479 377.395 129.223 380.264 133.029C383.187 136.78 387.076 139.621 391.93 141.551C396.84 143.427 402.383 144.364 408.561 144.364C414.629 144.364 419.897 143.482 424.365 141.717C428.888 139.951 432.391 137.497 434.873 134.353C437.355 131.208 438.597 127.595 438.597 123.513C438.597 119.707 437.466 116.508 435.204 113.915C432.998 111.323 429.743 109.116 425.441 107.296C421.193 105.476 415.98 103.821 409.802 102.332L391.351 97.6981C377.064 94.223 365.784 88.7897 357.51 81.3981C349.236 74.0065 345.126 64.0499 345.181 51.5284C345.126 41.2685 347.857 32.3048 353.373 24.6374C358.944 16.9701 366.584 10.9851 376.292 6.68252C386.001 2.37997 397.033 0.228687 409.389 0.228687C421.965 0.228687 432.943 2.37997 442.32 6.68252C451.752 10.9851 459.089 16.9701 464.329 24.6374C469.569 32.3048 472.272 41.1857 472.438 51.2802H438.1ZM492.399 32.0842V2.54545H631.57V32.0842H579.691V172H544.278V32.0842H492.399ZM662.991 172H624.599L683.098 2.54545H729.267L787.683 172H749.291L706.844 41.2685H705.521L662.991 172ZM660.592 105.393H751.277V133.36H660.592V105.393ZM912.478 57.3203C911.319 53.2936 909.692 49.7357 907.596 46.6467C905.5 43.5025 902.935 40.8548 899.901 38.7035C896.922 36.497 893.502 34.8146 889.641 33.6562C885.835 32.4979 881.615 31.9187 876.982 31.9187C868.321 31.9187 860.709 34.07 854.145 38.3725C847.636 42.6751 842.561 48.9358 838.92 57.1548C835.28 65.3186 833.46 75.3028 833.46 87.1072C833.46 98.9117 835.252 108.951 838.838 117.225C842.423 125.499 847.498 131.815 854.062 136.173C860.626 140.475 868.376 142.627 877.312 142.627C885.421 142.627 892.344 141.193 898.081 138.324C903.873 135.401 908.285 131.291 911.319 125.996C914.408 120.7 915.953 114.44 915.953 107.213L923.234 108.289H879.547V81.3153H950.456V102.663C950.456 117.556 947.312 130.353 941.023 141.055C934.735 151.701 926.075 159.92 915.043 165.712C904.01 171.448 891.379 174.317 877.147 174.317C861.261 174.317 847.305 170.814 835.28 163.809C823.255 156.748 813.877 146.736 807.148 133.773C800.473 120.755 797.136 105.31 797.136 87.4382C797.136 73.7031 799.122 61.4574 803.093 50.701C807.12 39.8894 812.747 30.7327 819.973 23.2308C827.199 15.7289 835.611 10.0198 845.209 6.10333C854.807 2.1869 865.205 0.228687 876.402 0.228687C886 0.228687 894.936 1.63529 903.211 4.44851C911.485 7.20656 918.821 11.123 925.22 16.1978C931.674 21.2726 936.942 27.3127 941.023 34.3182C945.105 41.2685 947.726 48.9358 948.884 57.3203H912.478ZM1119.1 2.54545V172H1088.16L1014.44 65.3462H1013.19V172H977.368V2.54545H1008.81L1081.95 109.116H1083.44V2.54545H1119.1ZM1148.7 172V2.54545H1262.89V32.0842H1184.53V72.462H1257.01V102.001H1184.53V142.461H1263.22V172H1148.7Z" fill="black"/>
</svg>
