<svg width="315" height="44" viewBox="0 0 315 44" fill="none" xmlns="http://www.w3.org/2000/svg">
<path d="M38.0486 15.5724H29.006C28.8409 14.3879 28.5038 13.3358 27.9945 12.4161C27.4853 11.4825 26.8316 10.6882 26.0331 10.0332C25.2349 9.37827 24.3128 8.87661 23.2668 8.52824C22.2346 8.17987 21.1128 8.00568 19.9017 8.00568C17.7133 8.00568 15.8071 8.5561 14.183 9.65697C12.559 10.7439 11.2996 12.3325 10.405 14.4228C9.5104 16.4991 9.06311 19.0213 9.06311 21.9895C9.06311 25.0413 9.5104 27.6054 10.405 29.6817C11.3134 31.7581 12.5796 33.3256 14.2037 34.3846C15.8277 35.4438 17.7064 35.9734 19.8397 35.9734C21.0372 35.9734 22.1451 35.8129 23.1636 35.4926C24.1958 35.172 25.1112 34.7052 25.9094 34.0921C26.7076 33.465 27.3683 32.7057 27.8912 31.8136C28.4279 30.9219 28.7997 29.9045 29.006 28.7619L38.0486 28.8036C37.8145 30.7685 37.2297 32.6637 36.2938 34.4892C35.3716 36.3008 34.126 37.9241 32.5571 39.3595C31.0016 40.7808 29.1438 41.9095 26.9828 42.7457C24.8357 43.568 22.4066 43.979 19.6952 43.979C15.9241 43.979 12.5521 43.1151 9.57922 41.3871C6.62012 39.6591 4.28038 37.1577 2.55996 33.8831C0.853322 30.6084 0 26.6437 0 21.9895C0 17.3213 0.867085 13.3498 2.60125 10.075C4.33543 6.80028 6.68894 4.30592 9.66181 2.59191C12.6347 0.863973 15.9791 0 19.6952 0C22.1451 0 24.416 0.348375 26.5079 1.04513C28.6138 1.74188 30.4787 2.75915 32.1027 4.0969C33.7268 5.42073 35.0482 7.04417 36.0667 8.9672C37.0989 10.8902 37.7594 13.092 38.0486 15.5724ZM50.9515 43.3937H41.3723L55.9682 0.585272H67.4881L82.0635 43.3937H72.4843L61.8933 10.3677H61.563L50.9515 43.3937ZM50.3529 26.5671H72.9796V33.6323H50.3529V26.5671ZM109.124 12.8969C108.959 11.2107 108.25 9.90085 106.997 8.9672C105.745 8.03355 104.045 7.56672 101.898 7.56672C100.439 7.56672 99.2074 7.77575 98.2026 8.19379C97.1978 8.59791 96.4271 9.16228 95.8904 9.88691C95.3674 10.6115 95.1059 11.4337 95.1059 12.3534C95.0782 13.1198 95.2367 13.7887 95.5807 14.3601C95.9385 14.9314 96.4271 15.4261 97.0464 15.8441C97.6659 16.2483 98.3815 16.6036 99.1934 16.9102C100.006 17.2028 100.873 17.4536 101.795 17.6626L105.593 18.5824C107.438 19.0004 109.131 19.5578 110.672 20.2546C112.214 20.9513 113.549 21.8083 114.677 22.8256C115.806 23.8428 116.68 25.0413 117.299 26.4208C117.932 27.8004 118.256 29.3821 118.27 31.1656C118.256 33.7854 117.595 36.057 116.287 37.98C114.994 39.889 113.122 41.3732 110.672 42.4322C108.236 43.4773 105.297 44 101.857 44C98.4434 44 95.4705 43.4702 92.9382 42.4112C90.4194 41.3522 88.4512 39.7845 87.0338 37.7081C85.6298 35.6179 84.8935 33.0331 84.8246 29.9533H93.4749C93.5712 31.3887 93.9771 32.5872 94.693 33.5487C95.4223 34.4963 96.3927 35.214 97.6038 35.7015C98.8289 36.1755 100.212 36.4122 101.753 36.4122C103.267 36.4122 104.582 36.1893 105.697 35.7435C106.825 35.2973 107.699 34.6774 108.319 33.8831C108.938 33.0886 109.248 32.1759 109.248 31.1447C109.248 30.1832 108.966 29.375 108.401 28.72C107.851 28.0652 107.039 27.5076 105.965 27.0479C104.905 26.5881 103.605 26.17 102.063 25.7938L97.4593 24.6232C93.8946 23.7453 91.0801 22.3727 89.0156 20.5054C86.9512 18.6381 85.9257 16.1228 85.9394 12.9596C85.9257 10.3677 86.6071 8.10322 87.9834 6.16625C89.3734 4.2293 91.2797 2.71734 93.7019 1.6304C96.1244 0.543468 98.877 0 101.96 0C105.098 0 107.837 0.543468 110.177 1.6304C112.53 2.71734 114.361 4.2293 115.668 6.16625C116.976 8.10322 117.65 10.3468 117.691 12.8969H109.124ZM122.672 8.04749V0.585272H157.397V8.04749H144.452V43.3937H135.616V8.04749H122.672ZM165.236 43.3937H155.657L170.253 0.585272H181.773L196.348 43.3937H186.769L176.178 10.3677H175.848L165.236 43.3937ZM164.638 26.5671H187.265V33.6323H164.638V26.5671ZM227.486 14.4228C227.197 13.4055 226.791 12.5067 226.268 11.7263C225.745 10.932 225.105 10.2632 224.348 9.71969C223.605 9.16228 222.751 8.73726 221.788 8.44462C220.838 8.152 219.785 8.00568 218.629 8.00568C216.468 8.00568 214.569 8.54916 212.931 9.63607C211.307 10.723 210.041 12.3046 209.133 14.381C208.224 16.4433 207.77 18.9656 207.77 21.9477C207.77 24.9298 208.217 27.466 209.112 29.5562C210.007 31.6464 211.273 33.242 212.911 34.3429C214.548 35.4297 216.482 35.9734 218.712 35.9734C220.735 35.9734 222.462 35.6111 223.894 34.8863C225.339 34.1479 226.44 33.1096 227.197 31.7719C227.968 30.434 228.353 28.8526 228.353 27.0269L230.17 27.2987H219.269V20.4845H236.962V25.8775C236.962 29.6398 236.178 32.8726 234.608 35.5762C233.039 38.2657 230.879 40.342 228.126 41.8052C225.373 43.2543 222.222 43.979 218.671 43.979C214.707 43.979 211.225 43.0941 208.224 41.3245C205.224 39.5407 202.884 37.0114 201.205 33.7366C199.54 30.4479 198.707 26.5462 198.707 22.0313C198.707 18.5615 199.203 15.4679 200.193 12.7506C201.198 10.0193 202.602 7.70607 204.405 5.81091C206.208 3.91574 208.307 2.47348 210.702 1.48408C213.097 0.494693 215.691 0 218.485 0C220.88 0 223.109 0.355343 225.174 1.06603C227.238 1.76278 229.069 2.75217 230.665 4.03419C232.276 5.31621 233.59 6.84209 234.608 8.61186C235.627 10.3677 236.281 12.3046 236.57 14.4228H227.486ZM279.041 0.585272V43.3937H271.321L252.927 16.4503H252.615V43.3937H243.677V0.585272H251.522L269.771 27.5076H270.143V0.585272H279.041ZM286.426 43.3937V0.585272H314.918V8.04749H295.366V18.2479H313.451V25.7102H295.366V35.9314H315V43.3937H286.426Z" fill="#EEF3F5"/>
</svg>
