<svg width="695" height="25" viewBox="0 0 695 25" fill="none" xmlns="http://www.w3.org/2000/svg">
<path d="M11.3409 0.727272H16.2045V16.9545C16.2045 18.4545 15.8674 19.7576 15.1932 20.8636C14.5265 21.9697 13.5985 22.822 12.4091 23.4205C11.2197 24.0189 9.83712 24.3182 8.26136 24.3182C6.85985 24.3182 5.58712 24.072 4.44318 23.5795C3.30682 23.0795 2.4053 22.322 1.73864 21.3068C1.07197 20.2841 0.742424 19 0.75 17.4545H5.64773C5.66288 18.0682 5.78788 18.5947 6.02273 19.0341C6.26515 19.4659 6.5947 19.7992 7.01136 20.0341C7.43561 20.2614 7.93561 20.375 8.51136 20.375C9.11742 20.375 9.62879 20.2462 10.0455 19.9886C10.4697 19.7235 10.7917 19.3371 11.0114 18.8295C11.2311 18.322 11.3409 17.697 11.3409 16.9545V0.727272ZM47.9527 24V0.727272H63.6345V4.78409H52.8732V10.3295H62.8277V14.3864H52.8732V19.9432H63.68V24H47.9527ZM99.2378 24H93.9651L101.999 0.727272H108.34L116.363 24H111.09L105.261 6.04545H105.079L99.2378 24ZM98.9083 14.8523H111.363V18.6932H98.9083V14.8523ZM166.31 0.727272V24H162.06L151.935 9.35227H151.764V24H146.844V0.727272H151.162L161.208 15.3636H161.412V0.727272H166.31ZM208.839 10.4432V14.2841H198.226V10.4432H208.839ZM261.269 8.875H256.292C256.201 8.23106 256.016 7.65909 255.735 7.15909C255.455 6.65151 255.095 6.2197 254.656 5.86364C254.216 5.50757 253.709 5.23485 253.133 5.04545C252.565 4.85606 251.947 4.76136 251.281 4.76136C250.076 4.76136 249.027 5.06061 248.133 5.65909C247.239 6.25 246.546 7.11364 246.053 8.25C245.561 9.37879 245.315 10.75 245.315 12.3636C245.315 14.0227 245.561 15.4167 246.053 16.5455C246.553 17.6742 247.25 18.5265 248.144 19.1023C249.038 19.678 250.072 19.9659 251.247 19.9659C251.906 19.9659 252.516 19.8788 253.076 19.7045C253.644 19.5303 254.148 19.2765 254.587 18.9432C255.027 18.6023 255.391 18.1894 255.678 17.7045C255.974 17.2197 256.178 16.6667 256.292 16.0455L261.269 16.0682C261.141 17.1364 260.819 18.1667 260.303 19.1591C259.796 20.1439 259.11 21.0265 258.247 21.8068C257.391 22.5795 256.368 23.1932 255.178 23.6477C253.997 24.0947 252.659 24.3182 251.167 24.3182C249.091 24.3182 247.235 23.8485 245.599 22.9091C243.97 21.9697 242.682 20.6098 241.735 18.8295C240.796 17.0492 240.326 14.8939 240.326 12.3636C240.326 9.82576 240.803 7.66667 241.758 5.88636C242.712 4.10606 244.008 2.75 245.644 1.81818C247.281 0.878787 249.122 0.40909 251.167 0.40909C252.516 0.40909 253.766 0.598484 254.917 0.977272C256.076 1.35606 257.103 1.90909 257.997 2.63636C258.891 3.35606 259.618 4.23864 260.178 5.28409C260.747 6.32954 261.11 7.52651 261.269 8.875ZM292.478 24V0.727272H297.398V10.3295H307.387V0.727272H312.296V24H307.387V14.3864H297.398V24H292.478ZM344.033 24V0.727272H353.215C354.972 0.727272 356.472 1.04167 357.715 1.67045C358.965 2.29167 359.915 3.17424 360.567 4.31818C361.226 5.45454 361.555 6.79167 361.555 8.32955C361.555 9.875 361.222 11.2045 360.555 12.3182C359.889 13.4242 358.923 14.2727 357.658 14.8636C356.4 15.4545 354.877 15.75 353.09 15.75H346.942V11.7955H352.294C353.233 11.7955 354.014 11.6667 354.635 11.4091C355.256 11.1515 355.718 10.7652 356.021 10.25C356.332 9.73485 356.487 9.0947 356.487 8.32955C356.487 7.55682 356.332 6.9053 356.021 6.375C355.718 5.8447 355.252 5.44318 354.624 5.17045C354.002 4.89015 353.218 4.75 352.271 4.75H348.953V24H344.033ZM356.601 13.4091L362.385 24H356.953L351.294 13.4091H356.601ZM397.633 0.727272V24H392.713V0.727272H397.633ZM441.986 7.42045C441.896 6.50379 441.505 5.79167 440.816 5.28409C440.127 4.77651 439.191 4.52273 438.009 4.52273C437.206 4.52273 436.528 4.63636 435.975 4.86364C435.422 5.08333 434.998 5.39015 434.702 5.78409C434.415 6.17803 434.271 6.625 434.271 7.125C434.255 7.54167 434.343 7.9053 434.532 8.21591C434.729 8.52652 434.998 8.79545 435.339 9.02273C435.68 9.24242 436.074 9.43561 436.521 9.60227C436.968 9.76136 437.445 9.89773 437.952 10.0114L440.043 10.5114C441.058 10.7386 441.99 11.0417 442.839 11.4205C443.687 11.7992 444.422 12.2652 445.043 12.8182C445.665 13.3712 446.146 14.0227 446.486 14.7727C446.835 15.5227 447.013 16.3826 447.021 17.3523C447.013 18.7765 446.649 20.0114 445.93 21.0568C445.218 22.0947 444.187 22.9015 442.839 23.4773C441.498 24.0455 439.88 24.3295 437.986 24.3295C436.108 24.3295 434.471 24.0417 433.077 23.4659C431.691 22.8902 430.608 22.0379 429.827 20.9091C429.055 19.7727 428.649 18.3674 428.611 16.6932H433.373C433.426 17.4735 433.649 18.125 434.043 18.6477C434.445 19.1629 434.979 19.553 435.646 19.8182C436.32 20.0758 437.081 20.2045 437.93 20.2045C438.763 20.2045 439.486 20.0833 440.1 19.8409C440.721 19.5985 441.202 19.2614 441.543 18.8295C441.884 18.3977 442.055 17.9015 442.055 17.3409C442.055 16.8182 441.899 16.3788 441.589 16.0227C441.286 15.6667 440.839 15.3636 440.248 15.1136C439.665 14.8636 438.949 14.6364 438.1 14.4318L435.566 13.7955C433.604 13.3182 432.055 12.572 430.918 11.5568C429.782 10.5417 429.218 9.17424 429.225 7.45454C429.218 6.04545 429.593 4.81439 430.35 3.76136C431.115 2.70833 432.165 1.88636 433.498 1.29545C434.831 0.704545 436.346 0.40909 438.043 0.40909C439.771 0.40909 441.278 0.704545 442.566 1.29545C443.861 1.88636 444.869 2.70833 445.589 3.76136C446.308 4.81439 446.68 6.03409 446.702 7.42045H441.986ZM477.124 4.78409V0.727272H496.237V4.78409H489.112V24H484.249V4.78409H477.124ZM547.389 12.3636C547.389 14.9015 546.908 17.0606 545.946 18.8409C544.991 20.6212 543.688 21.9811 542.037 22.9205C540.393 23.8523 538.544 24.3182 536.491 24.3182C534.423 24.3182 532.567 23.8485 530.923 22.9091C529.279 21.9697 527.98 20.6098 527.025 18.8295C526.071 17.0492 525.594 14.8939 525.594 12.3636C525.594 9.82576 526.071 7.66667 527.025 5.88636C527.98 4.10606 529.279 2.75 530.923 1.81818C532.567 0.878787 534.423 0.40909 536.491 0.40909C538.544 0.40909 540.393 0.878787 542.037 1.81818C543.688 2.75 544.991 4.10606 545.946 5.88636C546.908 7.66667 547.389 9.82576 547.389 12.3636ZM542.4 12.3636C542.4 10.7197 542.154 9.33333 541.662 8.20455C541.177 7.07576 540.491 6.2197 539.605 5.63636C538.719 5.05303 537.681 4.76136 536.491 4.76136C535.302 4.76136 534.264 5.05303 533.378 5.63636C532.491 6.2197 531.802 7.07576 531.31 8.20455C530.825 9.33333 530.582 10.7197 530.582 12.3636C530.582 14.0076 530.825 15.3939 531.31 16.5227C531.802 17.6515 532.491 18.5076 533.378 19.0909C534.264 19.6742 535.302 19.9659 536.491 19.9659C537.681 19.9659 538.719 19.6742 539.605 19.0909C540.491 18.5076 541.177 17.6515 541.662 16.5227C542.154 15.3939 542.4 14.0076 542.4 12.3636ZM578.714 24V0.727272H587.896C589.661 0.727272 591.165 1.06439 592.407 1.73864C593.65 2.4053 594.597 3.33333 595.248 4.52273C595.907 5.70454 596.237 7.06818 596.237 8.61364C596.237 10.1591 595.903 11.5227 595.237 12.7045C594.57 13.8864 593.604 14.8068 592.339 15.4659C591.081 16.125 589.559 16.4545 587.771 16.4545H581.919V12.5114H586.975C587.922 12.5114 588.703 12.3485 589.316 12.0227C589.937 11.6894 590.4 11.2311 590.703 10.6477C591.013 10.0568 591.169 9.37879 591.169 8.61364C591.169 7.84091 591.013 7.16667 590.703 6.59091C590.4 6.00757 589.937 5.55682 589.316 5.23864C588.695 4.91288 587.907 4.75 586.953 4.75H583.634V24H578.714ZM627.113 24V0.727272H632.033V10.3295H642.022V0.727272H646.931V24H642.022V14.3864H632.033V24H627.113ZM678.668 24V0.727272H694.35V4.78409H683.588V10.3295H693.543V14.3864H683.588V19.9432H694.395V24H678.668Z" fill="black"/>
</svg>
