<svg width="814" height="28" viewBox="0 0 814 28" fill="none" xmlns="http://www.w3.org/2000/svg">
<path d="M12.4287 0.372447H18.1362V19.3672C18.1362 21.123 17.7406 22.6484 16.9494 23.943C16.167 25.2377 15.078 26.2354 13.6822 26.936C12.2865 27.6364 10.664 27.9868 8.81481 27.9868C7.17012 27.9868 5.67656 27.6986 4.33414 27.1221C3.00061 26.5368 1.94266 25.6501 1.16033 24.4618C0.377985 23.2647 -0.00874067 21.7616 0.000149845 19.9525H5.74769C5.76547 20.6708 5.91216 21.2871 6.18775 21.8015C6.47224 22.3069 6.85897 22.6971 7.34792 22.972C7.84578 23.2381 8.43254 23.3711 9.10819 23.3711C9.81941 23.3711 10.4195 23.2203 10.9085 22.9188C11.4063 22.6085 11.7842 22.1562 12.042 21.562C12.2998 20.9679 12.4287 20.2363 12.4287 19.3672V0.372447ZM55.393 27.6143V0.372447H73.7958V5.12115H61.1673V11.6123H72.849V16.3611H61.1673V22.8656H73.8492V27.6143H55.393ZM115.577 27.6143H109.389L118.817 0.372447H126.258L135.673 27.6143H129.485L122.645 6.59763H122.431L115.577 27.6143ZM115.19 16.9065H129.806V21.4024H115.19V16.9065ZM194.287 0.372447V27.6143H189.299L177.417 10.4684H177.217V27.6143H171.443V0.372447H176.51L188.299 17.505H188.539V0.372447H194.287ZM244.195 11.7454V16.2414H231.74V11.7454H244.195ZM305.722 9.90976H299.881C299.775 9.15599 299.558 8.48648 299.228 7.9012C298.899 7.30706 298.477 6.8016 297.962 6.38481C297.445 5.96802 296.85 5.64879 296.174 5.42708C295.508 5.20539 294.783 5.09454 294.001 5.09454C292.587 5.09454 291.356 5.44483 290.307 6.14538C289.258 6.83707 288.444 7.848 287.866 9.17816C287.288 10.4995 287 12.1045 287 13.9933C287 15.9354 287.288 17.5671 287.866 18.8884C288.453 20.2096 289.271 21.2073 290.32 21.8813C291.369 22.5552 292.582 22.8922 293.961 22.8922C294.734 22.8922 295.45 22.7902 296.107 22.5862C296.774 22.3823 297.365 22.0852 297.881 21.6951C298.397 21.296 298.824 20.8127 299.161 20.2451C299.508 19.6776 299.748 19.0303 299.881 18.3032L305.722 18.3297C305.572 19.5801 305.194 20.7861 304.588 21.9478C303.993 23.1006 303.188 24.1337 302.176 25.0471C301.171 25.9515 299.971 26.6699 298.574 27.2019C297.188 27.7252 295.618 27.9868 293.867 27.9868C291.431 27.9868 289.253 27.437 287.333 26.3374C285.421 25.2377 283.91 23.6459 282.799 21.562C281.697 19.4781 281.145 16.9552 281.145 13.9933C281.145 11.0227 281.705 8.49535 282.826 6.41141C283.945 4.32748 285.466 2.74015 287.386 1.64941C289.307 0.549803 291.467 0 293.867 0C295.45 0 296.917 0.221695 298.268 0.665085C299.628 1.10847 300.833 1.75582 301.882 2.60713C302.931 3.44957 303.785 4.48267 304.442 5.70642C305.109 6.93017 305.535 8.33128 305.722 9.90976ZM342.346 27.6143V0.372447H348.12V11.6123H359.842V0.372447H365.603V27.6143H359.842V16.3611H348.12V27.6143H342.346ZM402.846 27.6143V0.372447H413.622C415.683 0.372447 417.444 0.740465 418.902 1.47648C420.369 2.20365 421.484 3.23674 422.249 4.57578C423.023 5.90594 423.409 7.47112 423.409 9.27128C423.409 11.0803 423.018 12.6366 422.235 13.9402C421.454 15.2348 420.32 16.228 418.835 16.9197C417.359 17.6114 415.572 17.9573 413.475 17.9573H406.26V13.3283H412.541C413.643 13.3283 414.559 13.1776 415.288 12.876C416.017 12.5745 416.559 12.1223 416.914 11.5193C417.279 10.9163 417.461 10.1669 417.461 9.27128C417.461 8.36676 417.279 7.60413 416.914 6.98339C416.559 6.36264 416.012 5.89265 415.275 5.5734C414.545 5.2453 413.625 5.08125 412.514 5.08125H408.62V27.6143H402.846ZM417.595 15.2171L424.383 27.6143H418.008L411.367 15.2171H417.595ZM465.747 0.372447V27.6143H459.973V0.372447H465.747ZM517.795 8.20714C517.69 7.13414 517.231 6.30057 516.422 5.70642C515.614 5.11228 514.515 4.81521 513.128 4.81521C512.186 4.81521 511.39 4.94822 510.741 5.21427C510.092 5.47142 509.595 5.83057 509.247 6.2917C508.911 6.75282 508.742 7.27602 508.742 7.8613C508.723 8.34903 508.826 8.77468 509.048 9.13826C509.279 9.50184 509.595 9.81664 509.995 10.0827C510.395 10.3398 510.857 10.566 511.382 10.7611C511.907 10.9473 512.466 11.1069 513.061 11.24L515.515 11.8252C516.706 12.0912 517.8 12.446 518.796 12.8894C519.791 13.3327 520.654 13.8782 521.383 14.5255C522.113 15.1728 522.677 15.9354 523.076 16.8133C523.486 17.6912 523.695 18.6978 523.704 19.8328C523.695 21.4999 523.267 22.9455 522.424 24.1691C521.588 25.3841 520.378 26.3285 518.796 27.0025C517.223 27.6676 515.324 28 513.101 28C510.897 28 508.976 27.6631 507.34 26.9891C505.714 26.3152 504.443 25.3176 503.527 23.9963C502.621 22.666 502.144 21.0211 502.1 19.0613H507.688C507.75 19.9747 508.012 20.7373 508.474 21.3492C508.946 21.9522 509.573 22.4089 510.355 22.7193C511.146 23.0208 512.039 23.1715 513.036 23.1715C514.013 23.1715 514.862 23.0296 515.582 22.7459C516.311 22.4621 516.875 22.0675 517.275 21.562C517.676 21.0565 517.876 20.4757 517.876 19.8195C517.876 19.2077 517.693 18.6933 517.329 18.2765C516.974 17.8598 516.449 17.505 515.756 17.2123C515.072 16.9197 514.231 16.6538 513.235 16.4143L510.261 15.6694C507.959 15.1107 506.141 14.2373 504.807 13.0489C503.474 11.8607 502.812 10.26 502.82 8.24704C502.812 6.59763 503.252 5.15662 504.14 3.92399C505.038 2.69137 506.27 1.72922 507.835 1.03753C509.399 0.345844 511.177 0 513.168 0C515.196 0 516.964 0.345844 518.476 1.03753C519.996 1.72922 521.179 2.69137 522.023 3.92399C522.867 5.15662 523.304 6.58434 523.33 8.20714H517.795ZM559.03 5.12115V0.372447H581.459V5.12115H573.098V27.6143H567.391V5.12115H559.03ZM641.487 13.9933C641.487 16.9641 640.922 19.4914 639.793 21.5753C638.673 23.6593 637.144 25.2511 635.206 26.3507C633.277 27.4414 631.107 27.9868 628.698 27.9868C626.271 27.9868 624.093 27.437 622.164 26.3374C620.235 25.2377 618.71 23.6459 617.59 21.562C616.47 19.4781 615.91 16.9552 615.91 13.9933C615.91 11.0227 616.47 8.49535 617.59 6.41141C618.71 4.32748 620.235 2.74015 622.164 1.64941C624.093 0.549803 626.271 0 628.698 0C631.107 0 633.277 0.549803 635.206 1.64941C637.144 2.74015 638.673 4.32748 639.793 6.41141C640.922 8.49535 641.487 11.0227 641.487 13.9933ZM635.632 13.9933C635.632 12.0691 635.343 10.4463 634.766 9.12496C634.197 7.80366 633.392 6.8016 632.352 6.11877C631.312 5.43596 630.094 5.09454 628.698 5.09454C627.303 5.09454 626.085 5.43596 625.045 6.11877C624.004 6.8016 623.195 7.80366 622.618 9.12496C622.049 10.4463 621.764 12.0691 621.764 13.9933C621.764 15.9177 622.049 17.5404 622.618 18.8618C623.195 20.1831 624.004 21.1852 625.045 21.868C626.085 22.5507 627.303 22.8922 628.698 22.8922C630.094 22.8922 631.312 22.5507 632.352 21.868C633.392 21.1852 634.197 20.1831 634.766 18.8618C635.343 17.5404 635.632 15.9177 635.632 13.9933ZM678.247 27.6143V0.372447H689.022C691.093 0.372447 692.858 0.76706 694.316 1.5563C695.775 2.33666 696.886 3.42296 697.65 4.81521C698.423 6.19858 698.81 7.79479 698.81 9.60382C698.81 11.4129 698.419 13.009 697.637 14.3924C696.854 15.7758 695.721 16.8532 694.236 17.6247C692.76 18.3962 690.974 18.7819 688.876 18.7819H682.008V14.1663H687.941C689.053 14.1663 689.969 13.9757 690.689 13.5943C691.417 13.2041 691.961 12.6677 692.316 11.9848C692.68 11.2931 692.863 10.4995 692.863 9.60382C692.863 8.69931 692.68 7.91007 692.316 7.23612C691.961 6.55329 691.417 6.02567 690.689 5.65322C689.96 5.2719 689.035 5.08125 687.916 5.08125H684.021V27.6143H678.247ZM735.044 27.6143V0.372447H740.818V11.6123H752.54V0.372447H758.3V27.6143H752.54V16.3611H740.818V27.6143H735.044ZM795.544 27.6143V0.372447H813.947V5.12115H801.318V11.6123H813V16.3611H801.318V22.8656H814V27.6143H795.544Z" fill="#EEF3F5"/>
</svg>
