<svg width="315" height="58" viewBox="0 0 315 58" fill="none" xmlns="http://www.w3.org/2000/svg">
<path d="M0 57.2009V0.771497H22.2628C26.5244 0.771497 30.1614 1.53381 33.1738 3.05843C36.2047 4.56469 38.51 6.70467 40.0897 9.47839C41.6877 12.2337 42.4868 15.4759 42.4868 19.2048C42.4868 22.952 41.6786 26.1758 40.0621 28.876C38.4457 31.5579 36.1037 33.6152 33.0361 35.048C29.9869 36.4808 26.2948 37.1971 21.9598 37.1971H7.05358V27.6086H20.0311C22.3088 27.6086 24.2007 27.2963 25.707 26.6717C27.2132 26.0472 28.3337 25.1104 29.0684 23.8613C29.8216 22.6122 30.1981 21.06 30.1981 19.2048C30.1981 17.3311 29.8216 15.7514 29.0684 14.4656C28.3337 13.1797 27.204 12.2062 25.6794 11.5449C24.1732 10.8652 22.272 10.5254 19.9759 10.5254H11.9305V57.2009H0ZM30.4737 31.5211L44.4981 57.2009H31.3278L17.6064 31.5211H30.4737Z" fill="black"/>
<path d="M50.918 57.2009V0.771497H88.9412V10.6081H62.8485V24.0542H86.9849V33.8907H62.8485V47.3644H89.0514V57.2009H50.918Z" fill="black"/>
<path d="M129.038 17.0005C128.817 14.7778 127.871 13.0511 126.2 11.8204C124.528 10.5897 122.26 9.97435 119.394 9.97435C117.447 9.97435 115.803 10.2499 114.462 10.801C113.121 11.3337 112.093 12.0776 111.376 13.0328C110.678 13.988 110.329 15.0717 110.329 16.2841C110.292 17.2944 110.504 18.1761 110.963 18.9292C111.441 19.6823 112.093 20.3344 112.919 20.8855C113.746 21.4182 114.701 21.8866 115.785 22.2907C116.868 22.6765 118.026 23.0071 119.256 23.2827L124.326 24.495C126.788 25.0461 129.047 25.7808 131.104 26.6993C133.161 27.6177 134.943 28.7474 136.449 30.0884C137.956 31.4293 139.122 33.009 139.949 34.8276C140.794 36.6461 141.225 38.731 141.244 41.0822C141.225 44.5355 140.344 47.5297 138.599 50.0646C136.872 52.5812 134.374 54.5374 131.104 55.9335C127.853 57.3112 123.931 58 119.339 58C114.784 58 110.816 57.302 107.436 55.9059C104.075 54.5099 101.448 52.4434 99.556 49.7064C97.6824 46.9511 96.6997 43.5436 96.6078 39.4841H108.153C108.281 41.3761 108.823 42.9558 109.778 44.2233C110.752 45.4724 112.047 46.4184 113.663 47.0613C115.298 47.6858 117.144 47.9981 119.201 47.9981C121.222 47.9981 122.976 47.7042 124.464 47.1164C125.97 46.5286 127.137 45.7112 127.963 44.6641C128.79 43.6171 129.203 42.4139 129.203 41.0546C129.203 39.7872 128.826 38.7218 128.073 37.8584C127.339 36.9951 126.255 36.2603 124.822 35.6542C123.408 35.048 121.672 34.4969 119.615 34.001L113.47 32.458C108.713 31.3007 104.956 29.4914 102.201 27.0299C99.4458 24.5685 98.0773 21.2529 98.0957 17.0831C98.0773 13.6665 98.9866 10.6816 100.823 8.12827C102.679 5.57498 105.223 3.58195 108.456 2.14917C111.688 0.71639 115.362 0 119.477 0C123.665 0 127.32 0.71639 130.443 2.14917C133.584 3.58195 136.027 5.57498 137.772 8.12827C139.517 10.6816 140.417 13.639 140.472 17.0005H129.038Z" fill="black"/>
<path d="M184.123 0.771497H196.054V37.4176C196.054 41.5322 195.071 45.1325 193.105 48.2185C191.158 51.3045 188.431 53.7108 184.922 55.4375C181.414 57.1458 177.327 58 172.661 58C167.977 58 163.881 57.1458 160.372 55.4375C156.864 53.7108 154.136 51.3045 152.189 48.2185C150.242 45.1325 149.269 41.5322 149.269 37.4176V0.771497H161.199V36.3981C161.199 38.5473 161.667 40.4576 162.604 42.1292C163.559 43.8008 164.9 45.1142 166.627 46.0694C168.354 47.0245 170.365 47.5021 172.661 47.5021C174.976 47.5021 176.987 47.0245 178.695 46.0694C180.422 45.1142 181.754 43.8008 182.69 42.1292C183.646 40.4576 184.123 38.5473 184.123 36.3981V0.771497Z" fill="black"/>
<path d="M205.869 0.771497H220.583L236.123 38.685H236.784L252.324 0.771497H267.037V57.2009H255.465V20.4722H254.996L240.393 56.9254H232.513L217.91 20.3344H217.442V57.2009H205.869V0.771497Z" fill="black"/>
<path d="M276.867 57.2009V0.771497H314.89V10.6081H288.797V24.0542H312.934V33.8907H288.797V47.3644H315V57.2009H276.867Z" fill="black"/>
</svg>
