<svg width="179" height="28" viewBox="0 0 179 28" fill="none" xmlns="http://www.w3.org/2000/svg">
<path d="M6.25518 27.6091H0L9.53105 0H17.0534L26.571 27.6091H20.3158L13.4001 6.3091H13.1844L6.25518 27.6091ZM5.86423 16.7569H20.6394V21.3134H5.86423V16.7569Z" fill="#EEF3F5"/>
<path d="M29.8941 27.6091V0H40.7867C42.8808 0 44.6647 0.399936 46.1387 1.19981C47.6126 1.99069 48.736 3.09164 49.5089 4.50265C50.2908 5.90467 50.6818 7.52239 50.6818 9.3558C50.6818 11.1892 50.2863 12.8069 49.4954 14.209C48.7045 15.611 47.5587 16.7029 46.0578 17.4848C44.5659 18.2667 42.7594 18.6577 40.6384 18.6577H33.6957V13.9798H39.6948C40.8182 13.9798 41.7439 13.7866 42.4718 13.4001C43.2088 13.0047 43.757 12.4609 44.1165 11.7689C44.485 11.0679 44.6692 10.2635 44.6692 9.3558C44.6692 8.43909 44.485 7.63922 44.1165 6.95619C43.757 6.26416 43.2088 5.72942 42.4718 5.35195C41.7349 4.9655 40.8002 4.77227 39.6678 4.77227H35.7313V27.6091H29.8941Z" fill="#EEF3F5"/>
<path d="M54.4733 27.6091V0H65.3659C67.46 0 69.2439 0.399936 70.7179 1.19981C72.1918 1.99069 73.3152 3.09164 74.0881 4.50265C74.87 5.90467 75.261 7.52239 75.261 9.3558C75.261 11.1892 74.8655 12.8069 74.0746 14.209C73.2837 15.611 72.1379 16.7029 70.637 17.4848C69.1451 18.2667 67.3386 18.6577 65.2176 18.6577H58.2749V13.9798H64.274C65.3974 13.9798 66.3231 13.7866 67.051 13.4001C67.788 13.0047 68.3362 12.4609 68.6957 11.7689C69.0642 11.0679 69.2484 10.2635 69.2484 9.3558C69.2484 8.43909 69.0642 7.63922 68.6957 6.95619C68.3362 6.26416 67.788 5.72942 67.051 5.35195C66.3141 4.9655 65.3794 4.77227 64.247 4.77227H60.3105V27.6091H54.4733Z" fill="#EEF3F5"/>
<path d="M79.0525 27.6091V0H84.8897V22.7963H96.726V27.6091H79.0525Z" fill="#EEF3F5"/>
<path d="M106.055 27.6091H99.7997L109.331 0H116.853L126.371 27.6091H120.116L113.2 6.3091H112.984L106.055 27.6091ZM105.664 16.7569H120.439V21.3134H105.664V16.7569Z" fill="#EEF3F5"/>
<path d="M146.747 0H152.584V17.9297C152.584 19.9429 152.104 21.7044 151.142 23.2143C150.189 24.7241 148.855 25.9015 147.138 26.7463C145.422 27.5821 143.422 28 141.139 28C138.847 28 136.843 27.5821 135.127 26.7463C133.41 25.9015 132.075 24.7241 131.123 23.2143C130.17 21.7044 129.694 19.9429 129.694 17.9297V0H135.531V17.4309C135.531 18.4824 135.76 19.4171 136.219 20.235C136.686 21.0528 137.342 21.6954 138.187 22.1627C139.032 22.6301 140.016 22.8637 141.139 22.8637C142.272 22.8637 143.256 22.6301 144.091 22.1627C144.936 21.6954 145.588 21.0528 146.046 20.235C146.514 19.4171 146.747 18.4824 146.747 17.4309V0Z" fill="#EEF3F5"/>
<path d="M157.091 27.6091V24.1444L170.868 4.81271H157.064V0H178.202V3.46461L164.411 22.7963H178.229V27.6091H157.091Z" fill="#EEF3F5"/>
</svg>
