<svg width="215" height="28" viewBox="0 0 215 28" fill="none" xmlns="http://www.w3.org/2000/svg">
<path d="M5.71635 0.369014V27.3597H0V0.369014H5.71635Z" fill="#EEF3F5"/>
<path d="M33.034 0.369014V27.3597H28.0966L16.3338 10.3719H16.1358V27.3597H10.4195V0.369014H15.4361L27.1064 17.3437H27.3441V0.369014H33.034Z" fill="#EEF3F5"/>
<path d="M36.7272 5.07394V0.369014H58.9325V5.07394H50.655V27.3597H45.0047V5.07394H36.7272Z" fill="#EEF3F5"/>
<path d="M62.5894 27.3597V0.369014H80.8078V5.07394H68.3057V11.5053H79.8704V16.2103H68.3057V22.6548H80.8606V27.3597H62.5894Z" fill="#EEF3F5"/>
<path d="M85.3525 27.3597V0.369014H91.0688V22.6548H102.66V27.3597H85.3525Z" fill="#EEF3F5"/>
<path d="M112.162 0.369014V27.3597H106.446V0.369014H112.162Z" fill="#EEF3F5"/>
<path d="M126.449 27.3597H116.865V0.369014H126.529C129.248 0.369014 131.589 0.909356 133.552 1.99004C135.515 3.06194 137.024 4.60389 138.08 6.61589C139.145 8.6279 139.678 11.0353 139.678 13.838C139.678 16.6496 139.145 19.0657 138.08 21.0865C137.024 23.1073 135.506 24.658 133.526 25.7387C131.554 26.8194 129.195 27.3597 126.449 27.3597ZM122.581 22.4703H126.212C127.902 22.4703 129.323 22.1716 130.476 21.5741C131.638 20.9679 132.509 20.0322 133.09 18.767C133.68 17.493 133.974 15.85 133.974 13.838C133.974 11.8436 133.68 10.2138 133.09 8.94859C132.509 7.6834 131.642 6.75208 130.489 6.15462C129.336 5.55717 127.915 5.25845 126.225 5.25845H122.581V22.4703Z" fill="#EEF3F5"/>
<path d="M143.912 27.3597V0.369014H162.13V5.07394H149.628V11.5053H161.193V16.2103H149.628V22.6548H162.183V27.3597H143.912Z" fill="#EEF3F5"/>
<path d="M171.56 0.369014L178.095 20.8756H178.345L184.893 0.369014H191.23L181.91 27.3597H174.543L165.21 0.369014H171.56Z" fill="#EEF3F5"/>
<path d="M209.152 8.13148C209.046 7.06837 208.593 6.24248 207.792 5.65382C206.991 5.06515 205.904 4.77082 204.531 4.77082C203.598 4.77082 202.81 4.90261 202.168 5.16619C201.525 5.42099 201.033 5.77682 200.689 6.2337C200.355 6.69057 200.188 7.20895 200.188 7.78883C200.17 8.27206 200.271 8.69379 200.491 9.05402C200.72 9.41425 201.033 9.72615 201.429 9.98973C201.825 10.2445 202.282 10.4686 202.802 10.6619C203.321 10.8464 203.875 11.0045 204.465 11.1363L206.894 11.7162C208.074 11.9798 209.156 12.3312 210.142 12.7705C211.128 13.2098 211.981 13.7502 212.703 14.3915C213.425 15.0329 213.983 15.7885 214.38 16.6583C214.784 17.5282 214.991 18.5254 215 19.65C214.991 21.3018 214.569 22.7339 213.733 23.9464C212.905 25.1501 211.708 26.0858 210.142 26.7535C208.584 27.4125 206.705 27.7419 204.505 27.7419C202.322 27.7419 200.421 27.4081 198.801 26.7403C197.191 26.0726 195.932 25.0842 195.026 23.775C194.128 22.4571 193.657 20.8273 193.613 18.8856H199.145C199.206 19.7906 199.466 20.5462 199.924 21.1524C200.39 21.7499 201.011 22.2023 201.785 22.5098C202.568 22.8086 203.453 22.9579 204.439 22.9579C205.407 22.9579 206.247 22.8174 206.96 22.5362C207.682 22.2551 208.241 21.8641 208.637 21.3633C209.033 20.8625 209.231 20.287 209.231 19.6368C209.231 19.0306 209.05 18.521 208.69 18.108C208.338 17.6951 207.818 17.3437 207.132 17.0537C206.454 16.7638 205.622 16.5002 204.637 16.263L201.693 15.5249C199.413 14.9714 197.613 14.106 196.293 12.9287C194.973 11.7513 194.317 10.1655 194.326 8.17102C194.317 6.53682 194.753 5.10909 195.633 3.88783C196.522 2.66657 197.741 1.71328 199.29 1.02797C200.839 0.342656 202.599 0 204.571 0C206.577 0 208.329 0.342656 209.825 1.02797C211.33 1.71328 212.5 2.66657 213.337 3.88783C214.173 5.10909 214.604 6.52364 214.63 8.13148H209.152Z" fill="#EEF3F5"/>
</svg>
